#!OML:ASF I:\golf\golf\golf 2\Subject 1\2002-09-07\Subject1.ASF
:FULLY-SPECIFIED
:DEGREES
404
root 1.51081 17.6978 -4.26656 7.44865 5.93322 -6.10083
lowerback 6.87302 0.170172 -2.74578
upperback 1.04924 0.213665 5.95388
thorax -2.80509 0.16377 7.79075
lowerneck -22.515 -10.6611 -5.8079
upperneck 11.0928 -13.9868 7.84743
head 8.02872 -6.14801 1.59289
rclavicle 1.09332e-014 -2.3059e-014
rhumerus -29.0326 23.3895 -87.5631
rradius 95.7311
rwrist -41.808
rhand -19.2995 0.379131
rfingers 7.12502
rthumb 7.01601 -29.4846
lclavicle 1.09332e-014 -2.3059e-014
lhumerus -27.37 -23.7327 97.3317
lradius 78.2069
lwrist -0.584027
lhand -9.86222 34.7914
lfingers 7.12502
lthumb 16.1163 64.1413
rfemur -32.5254 -4.2327 24.8624
rtibia 34.7113
rfoot -9.40763 6.44195
rtoes 1.37291
lfemur -19.9215 0.475966 -14.637
ltibia 37.5143
lfoot -22.4292 -1.76753
ltoes -0.155452
405
root 1.52678 17.6914 -4.28321 7.16413 5.57006 -6.10657
lowerback 6.79504 0.161724 -2.92267
upperback 1.08294 0.187131 5.94271
thorax -2.72253 0.148678 7.88339
lowerneck -22.6371 -10.6957 -5.74848
upperneck 11.3329 -14.0509 7.76188
head 8.12211 -6.17309 1.5366
rclavicle 5.76476e-015 -6.36111e-015
rhumerus -29.2672 24.2107 -88.1799
rradius 96.0843
rwrist -42.1714
rhand -18.1771 0.554366
rfingers 7.12502
rthumb 8.09946 -29.2704
lclavicle 5.76476e-015 -6.36111e-015
lhumerus -27.5708 -24.2097 97.4635
lradius 78.7671
lwrist -0.219
lhand -10.8647 33.7318
lfingers 7.12502
lthumb 15.1508 63.1572
rfemur -32.2333 -4.12632 24.792
rtibia 34.6177
rfoot -9.29471 6.6275
rtoes 1.60279
lfemur -19.5815 0.22768 -14.7327
ltibia 37.5583
lfoot -22.3859 -1.24806
ltoes 0.0419414
406
root 1.54132 17.6912 -4.29801 6.75412 5.07805 -6.21745
lowerback 6.93836 0.18885 -3.06601
upperback 1.07699 0.213852 5.9873
thorax -2.81389 0.166525 8.0156
lowerneck -22.4871 -10.7582 -5.85118
upperneck 11.4382 -14.1282 7.78927
head 8.14816 -6.2127 1.55179
rclavicle -1.98785e-016 -2.78299e-014
rhumerus -29.7829 25.0868 -88.9071
rradius 96.4646
rwrist -42.4309
rhand -17.3169 0.840775
rfingers 7.12502
rthumb 8.92951 -28.9503
lclavicle -1.98785e-016 -2.78299e-014
lhumerus -27.9195 -24.5543 97.6928
lradius 79.4237
lwrist 0.0640343
lhand -11.4494 33.1294
lfingers 7.12502
lthumb 14.5875 62.5964
rfemur -31.8068 -3.95582 24.8359
rtibia 34.5465
rfoot -9.24843 6.92063
rtoes 1.7796
lfemur -19.0655 0.16619 -14.728
ltibia 37.5794
lfoot -22.4005 -0.873726
ltoes 1.31502
407
root 1.55729 17.6907 -4.31131 6.53366 4.55976 -6.20191
lowerback 6.83724 0.224469 -3.33459
upperback 1.04366 0.242903 6.004
thorax -2.79778 0.184192 8.18821
lowerneck -22.25 -10.8046 -6.00314
upperneck 11.4114 -14.1765 7.8921
head 8.12374 -6.23996 1.60942
rclavicle 0 5.725e-014
rhumerus -30.3371 25.9714 -89.5901
rradius 96.8566
rwrist -42.6333
rhand -16.5755 1.15106
rfingers 7.12502
rthumb 9.64497 -28.6081
lclavicle 0 5.725e-014
lhumerus -28.2769 -24.8117 97.9741
lradius 79.991
lwrist 0.476684
lhand -11.9406 32.3455
lfingers 7.12502
lthumb 14.1142 61.8461
rfemur -31.5827 -3.81092 24.7602
rtibia 34.4848
rfoot -9.22692 7.23331
rtoes 1.4978
lfemur -18.7491 0.303248 -14.878
ltibia 37.601
lfoot -22.4925 -0.619632
ltoes 2.28313
408
root 1.57378 17.6865 -4.32579 6.47832 4.09338 -6.08864
lowerback 6.40641 0.243612 -3.7121
upperback 1.10728 0.243042 6.04251
thorax -2.49141 0.175944 8.44688
lowerneck -22.2939 -10.8454 -6.16208
upperneck 11.456 -14.1895 7.91215
head 8.15954 -6.24819 1.63403
rclavicle 1.13307e-014 7.95139e-016
rhumerus -30.5796 26.8783 -89.9903
rradius 97.1491
rwrist -42.8153
rhand -15.6575 1.4337
rfingers 7.12502
rthumb 10.5305 -28.2825
lclavicle 1.13307e-014 7.95139e-016
lhumerus -28.3428 -24.9691 98.2116
lradius 80.5401
lwrist 0.793739
lhand -12.0523 31.4289
lfingers 7.12502
lthumb 14.0066 60.937
rfemur -31.535 -3.7117 24.5923
rtibia 34.4007
rfoot -9.093 7.51537
rtoes 1.44029
lfemur -18.604 0.411884 -15.1252
ltibia 37.6117
lfoot -22.5636 -0.29333
ltoes 2.31475
409
root 1.59194 17.6853 -4.34064 6.32582 3.74253 -6.19009
lowerback 6.36503 0.203335 -3.70889
upperback 1.01223 0.192525 6.06002
thorax -2.55873 0.155421 8.46912
lowerneck -22.3103 -10.8529 -6.20273
upperneck 11.693 -14.2001 7.86857
head 8.2423 -6.25179 1.6184
rclavicle -1.49089e-015 -1.66979e-014
rhumerus -31.081 27.7044 -90.6631
rradius 97.3566
rwrist -42.8894
rhand -14.6602 1.52333
rfingers 7.12502
rthumb 11.4925 -28.1416
lclavicle -1.49089e-015 -1.66979e-014
lhumerus -28.6144 -25.2038 98.3858
lradius 81.0443
lwrist 1.10499
lhand -11.8576 30.3928
lfingers 7.12502
lthumb 14.1942 59.8879
rfemur -31.399 -3.66207 24.6583
rtibia 34.3319
rfoot -8.91761 7.73484
rtoes 1.72329
lfemur -18.4253 0.424824 -15.1177
ltibia 37.6337
lfoot -22.4962 0.0329839
ltoes 1.86003
410
root 1.60978 17.6867 -4.35475 6.22876 3.48028 -6.34173
lowerback 6.13404 0.15534 -3.64842
upperback 0.956964 0.13588 6.0779
thorax -2.47697 0.12507 8.45553
lowerneck -22.183 -10.8753 -6.16247
upperneck 11.7586 -14.2506 7.83679
head 8.24176 -6.27913 1.59809
rclavicle -5.96354e-015 -1.03368e-014
rhumerus -31.5322 28.3477 -91.3095
rradius 97.5642
rwrist -42.8045
rhand -13.3978 1.41945
rfingers 7.12502
rthumb 12.7097 -28.1738
lclavicle -5.96354e-015 -1.03368e-014
lhumerus -28.7814 -25.6656 98.5282
lradius 81.4879
lwrist 1.5945
lhand -11.7283 29.7059
lfingers 7.12502
lthumb 14.3188 59.1921
rfemur -31.323 -3.64842 24.7987
rtibia 34.255
rfoot -8.74333 7.88441
rtoes 1.73771
lfemur -18.3464 0.428731 -15.0377
ltibia 37.6663
lfoot -22.4011 0.23062
ltoes 1.87337
411
root 1.6272 17.684 -4.36795 6.22624 3.1993 -6.30482
lowerback 5.73686 0.122489 -3.75629
upperback 0.929829 0.0869497 6.01768
thorax -2.27395 0.0947525 8.45257
lowerneck -22.0909 -10.9019 -6.14958
upperneck 11.8228 -14.3055 7.85246
head 8.25284 -6.30391 1.59493
rclavicle 1.25234e-014 0
rhumerus -31.9322 28.8204 -91.9059
rradius 97.8164
rwrist -42.5563
rhand -11.768 1.24818
rfingers 7.12502
rthumb 14.2806 -28.2408
lclavicle 1.25234e-014 0
lhumerus -28.9676 -26.178 98.6658
lradius 82.0434
lwrist 2.30139
lhand -11.8573 29.3991
lfingers 7.12502
lthumb 14.1945 58.8941
rfemur -31.3328 -3.62556 24.7366
rtibia 34.1548
rfoot -8.51869 8.06768
rtoes 1.821
lfemur -18.346 0.459127 -15.1851
ltibia 37.6996
lfoot -22.3779 0.531484
ltoes 1.82365
412
root 1.64417 17.6861 -4.37941 6.1338 2.91329 -6.26979
lowerback 5.50302 0.0980781 -3.82568
upperback 0.897456 0.0509532 5.94473
thorax -2.17015 0.074069 8.414
lowerneck -22.0815 -10.9354 -6.07258
upperneck 11.9749 -14.3761 7.7852
head 8.29623 -6.33627 1.54796
rclavicle -1.31198e-014 -3.57812e-014
rhumerus -32.35 29.2858 -92.5148
rradius 98.0652
rwrist -42.2022
rhand -10.4273 1.13812
rfingers 7.12502
rthumb 15.5721 -28.255
lclavicle -1.31198e-014 -3.57812e-014
lhumerus -29.2555 -26.7035 98.8231
lradius 82.6569
lwrist 3.37217
lhand -11.5492 29.4454
lfingers 7.12502
lthumb 14.4914 58.9193
rfemur -31.2286 -3.56047 24.6657
rtibia 34.0706
rfoot -8.341 8.22596
rtoes 1.78088
lfemur -18.2731 0.553473 -15.3363
ltibia 37.7115
lfoot -22.3022 0.888851
ltoes 1.12638
413
root 1.65933 17.6915 -4.3901 6.0015 2.66843 -6.28838
lowerback 5.41636 0.0560309 -3.84161
upperback 0.812806 -0.0048134 5.88877
thorax -2.19998 0.0491996 8.36626
lowerneck -22.031 -10.9718 -5.99983
upperneck 12.1767 -14.4576 7.72307
head 8.3513 -6.37315 1.50212
rclavicle 4.27387e-015 1.43125e-014
rhumerus -32.8918 29.8152 -93.2126
rradius 98.3021
rwrist -41.7056
rhand -9.60072 1.29415
rfingers 7.12502
rthumb 16.3681 -28.0352
lclavicle 4.27387e-015 1.43125e-014
lhumerus -29.612 -27.1657 98.9944
lradius 83.2768
lwrist 4.95214
lhand -10.8428 29.6393
lfingers 7.12502
lthumb 15.172 59.0631
rfemur -31.0877 -3.4814 24.6549
rtibia 34.0159
rfoot -8.19258 8.31014
rtoes 1.73553
lfemur -18.1232 0.610769 -15.3883
ltibia 37.7016
lfoot -22.2572 0.961692
ltoes 1.50376
414
root 1.67557 17.6903 -4.4033 5.91662 2.36469 -6.21739
lowerback 5.31095 0.0352297 -3.96492
upperback 0.71965 -0.0379984 5.82741
thorax -2.232 0.0369357 8.37409
lowerneck -21.9266 -11.0288 -6.06959
upperneck 12.3461 -14.546 7.76826
head 8.40696 -6.41139 1.51327
rclavicle -1.15295e-014 -1.59028e-015
rhumerus -33.4587 30.3011 -93.8962
rradius 98.481
rwrist -40.8904
rhand -8.99137 1.84631
rfingers 7.12502
rthumb 16.9547 -27.4337
lclavicle -1.15295e-014 -1.59028e-015
lhumerus -29.9393 -27.5227 99.2116
lradius 83.8306
lwrist 7.03525
lhand -10.5586 29.3308
lfingers 7.12502
lthumb 15.4457 58.7337
rfemur -31.0273 -3.3943 24.5465
rtibia 33.959
rfoot -8.03749 8.46058
rtoes 1.75673
lfemur -17.9459 0.58218 -15.5384
ltibia 37.6809
lfoot -22.317 1.01732
ltoes 2.46232
